<mxfile host="app.diagrams.net" modified="2022-06-05T09:23:52.841Z" agent="5.0 (Windows)" etag="KRw8oiou_gxamuNi9rYV" version="18.2.0" type="github">
  <diagram id="cxO5rz0KT_JqVR-4lWZD" name="Page-1">
    <mxGraphModel dx="813" dy="446" grid="1" gridSize="10" guides="1" tooltips="1" connect="1" arrows="1" fold="1" page="1" pageScale="1" pageWidth="827" pageHeight="583" math="1" shadow="0">
      <root>
        <mxCell id="0" />
        <mxCell id="1" parent="0" />
        <mxCell id="uDSmN9cMYbXbq0DJB1bG-10" style="edgeStyle=orthogonalEdgeStyle;rounded=0;orthogonalLoop=1;jettySize=auto;html=1;exitX=1;exitY=0.5;exitDx=0;exitDy=0;entryX=0;entryY=0.5;entryDx=0;entryDy=0;" edge="1" parent="1" source="uDSmN9cMYbXbq0DJB1bG-1" target="uDSmN9cMYbXbq0DJB1bG-9">
          <mxGeometry relative="1" as="geometry" />
        </mxCell>
        <mxCell id="uDSmN9cMYbXbq0DJB1bG-1" value="" style="rounded=0;whiteSpace=wrap;html=1;" vertex="1" parent="1">
          <mxGeometry x="45" y="120" width="20" height="100" as="geometry" />
        </mxCell>
        <mxCell id="uDSmN9cMYbXbq0DJB1bG-19" style="edgeStyle=orthogonalEdgeStyle;rounded=0;orthogonalLoop=1;jettySize=auto;html=1;entryX=0.005;entryY=0.785;entryDx=0;entryDy=0;entryPerimeter=0;" edge="1" parent="1" source="uDSmN9cMYbXbq0DJB1bG-2" target="uDSmN9cMYbXbq0DJB1bG-16">
          <mxGeometry relative="1" as="geometry" />
        </mxCell>
        <mxCell id="uDSmN9cMYbXbq0DJB1bG-2" value="" style="rounded=0;whiteSpace=wrap;html=1;" vertex="1" parent="1">
          <mxGeometry x="45" y="210" width="20" height="70" as="geometry" />
        </mxCell>
        <mxCell id="uDSmN9cMYbXbq0DJB1bG-4" value="" style="endArrow=classic;startArrow=classic;html=1;rounded=0;" edge="1" parent="1">
          <mxGeometry width="50" height="50" relative="1" as="geometry">
            <mxPoint x="35" y="210" as="sourcePoint" />
            <mxPoint x="35" y="120" as="targetPoint" />
          </mxGeometry>
        </mxCell>
        <mxCell id="uDSmN9cMYbXbq0DJB1bG-5" value="" style="endArrow=classic;startArrow=classic;html=1;rounded=0;" edge="1" parent="1">
          <mxGeometry width="50" height="50" relative="1" as="geometry">
            <mxPoint x="35" y="280" as="sourcePoint" />
            <mxPoint x="35" y="210" as="targetPoint" />
          </mxGeometry>
        </mxCell>
        <mxCell id="uDSmN9cMYbXbq0DJB1bG-6" value="&lt;div&gt;$$r$$&lt;/div&gt;" style="text;html=1;align=center;verticalAlign=middle;resizable=0;points=[];autosize=1;strokeColor=none;fillColor=none;" vertex="1" parent="1">
          <mxGeometry y="155" width="50" height="20" as="geometry" />
        </mxCell>
        <mxCell id="uDSmN9cMYbXbq0DJB1bG-8" value="$$c$$" style="text;html=1;align=center;verticalAlign=middle;resizable=0;points=[];autosize=1;strokeColor=none;fillColor=none;" vertex="1" parent="1">
          <mxGeometry y="235" width="50" height="20" as="geometry" />
        </mxCell>
        <mxCell id="uDSmN9cMYbXbq0DJB1bG-18" style="edgeStyle=orthogonalEdgeStyle;rounded=0;orthogonalLoop=1;jettySize=auto;html=1;exitX=1;exitY=0.5;exitDx=0;exitDy=0;entryX=0;entryY=0.313;entryDx=0;entryDy=0;entryPerimeter=0;" edge="1" parent="1" source="uDSmN9cMYbXbq0DJB1bG-9" target="uDSmN9cMYbXbq0DJB1bG-16">
          <mxGeometry relative="1" as="geometry" />
        </mxCell>
        <mxCell id="uDSmN9cMYbXbq0DJB1bG-9" value="" style="shape=orEllipse;perimeter=ellipsePerimeter;whiteSpace=wrap;html=1;backgroundOutline=1;" vertex="1" parent="1">
          <mxGeometry x="105" y="160" width="20" height="20" as="geometry" />
        </mxCell>
        <mxCell id="uDSmN9cMYbXbq0DJB1bG-13" style="edgeStyle=orthogonalEdgeStyle;rounded=0;orthogonalLoop=1;jettySize=auto;html=1;entryX=0.5;entryY=0;entryDx=0;entryDy=0;" edge="1" parent="1" source="uDSmN9cMYbXbq0DJB1bG-12" target="uDSmN9cMYbXbq0DJB1bG-9">
          <mxGeometry relative="1" as="geometry" />
        </mxCell>
        <mxCell id="uDSmN9cMYbXbq0DJB1bG-12" value="&lt;div&gt;$$x_0$$&lt;/div&gt;" style="text;html=1;align=center;verticalAlign=middle;resizable=0;points=[];autosize=1;strokeColor=none;fillColor=none;" vertex="1" parent="1">
          <mxGeometry x="85" y="100" width="60" height="20" as="geometry" />
        </mxCell>
        <mxCell id="uDSmN9cMYbXbq0DJB1bG-14" value="&lt;div&gt;$$r$$&lt;/div&gt;" style="text;html=1;align=center;verticalAlign=middle;resizable=0;points=[];autosize=1;strokeColor=none;fillColor=none;" vertex="1" parent="1">
          <mxGeometry x="105" y="120" width="50" height="20" as="geometry" />
        </mxCell>
        <mxCell id="uDSmN9cMYbXbq0DJB1bG-15" value="" style="endArrow=none;html=1;rounded=0;" edge="1" parent="1">
          <mxGeometry width="50" height="50" relative="1" as="geometry">
            <mxPoint x="105" y="140" as="sourcePoint" />
            <mxPoint x="125" y="130" as="targetPoint" />
          </mxGeometry>
        </mxCell>
        <mxCell id="uDSmN9cMYbXbq0DJB1bG-16" value="$$f$$" style="whiteSpace=wrap;html=1;" vertex="1" parent="1">
          <mxGeometry x="145" y="120" width="40" height="160" as="geometry" />
        </mxCell>
        <mxCell id="uDSmN9cMYbXbq0DJB1bG-20" style="edgeStyle=orthogonalEdgeStyle;rounded=0;orthogonalLoop=1;jettySize=auto;html=1;exitX=1;exitY=0.5;exitDx=0;exitDy=0;entryX=0;entryY=0.5;entryDx=0;entryDy=0;" edge="1" parent="1" source="uDSmN9cMYbXbq0DJB1bG-21" target="uDSmN9cMYbXbq0DJB1bG-25">
          <mxGeometry relative="1" as="geometry" />
        </mxCell>
        <mxCell id="uDSmN9cMYbXbq0DJB1bG-30" style="edgeStyle=orthogonalEdgeStyle;rounded=0;orthogonalLoop=1;jettySize=auto;html=1;entryX=1;entryY=0.313;entryDx=0;entryDy=0;entryPerimeter=0;startArrow=classic;startFill=1;endArrow=none;endFill=0;" edge="1" parent="1" source="uDSmN9cMYbXbq0DJB1bG-21" target="uDSmN9cMYbXbq0DJB1bG-16">
          <mxGeometry relative="1" as="geometry" />
        </mxCell>
        <mxCell id="uDSmN9cMYbXbq0DJB1bG-21" value="" style="rounded=0;whiteSpace=wrap;html=1;" vertex="1" parent="1">
          <mxGeometry x="215" y="120" width="20" height="100" as="geometry" />
        </mxCell>
        <mxCell id="uDSmN9cMYbXbq0DJB1bG-22" style="edgeStyle=orthogonalEdgeStyle;rounded=0;orthogonalLoop=1;jettySize=auto;html=1;entryX=0.005;entryY=0.785;entryDx=0;entryDy=0;entryPerimeter=0;" edge="1" parent="1" source="uDSmN9cMYbXbq0DJB1bG-23" target="uDSmN9cMYbXbq0DJB1bG-29">
          <mxGeometry relative="1" as="geometry" />
        </mxCell>
        <mxCell id="uDSmN9cMYbXbq0DJB1bG-31" style="edgeStyle=orthogonalEdgeStyle;rounded=0;orthogonalLoop=1;jettySize=auto;html=1;entryX=1;entryY=0.781;entryDx=0;entryDy=0;entryPerimeter=0;startArrow=classic;startFill=1;endArrow=none;endFill=0;" edge="1" parent="1" source="uDSmN9cMYbXbq0DJB1bG-23" target="uDSmN9cMYbXbq0DJB1bG-16">
          <mxGeometry relative="1" as="geometry" />
        </mxCell>
        <mxCell id="uDSmN9cMYbXbq0DJB1bG-23" value="" style="rounded=0;whiteSpace=wrap;html=1;" vertex="1" parent="1">
          <mxGeometry x="215" y="210" width="20" height="70" as="geometry" />
        </mxCell>
        <mxCell id="uDSmN9cMYbXbq0DJB1bG-24" style="edgeStyle=orthogonalEdgeStyle;rounded=0;orthogonalLoop=1;jettySize=auto;html=1;exitX=1;exitY=0.5;exitDx=0;exitDy=0;entryX=0;entryY=0.313;entryDx=0;entryDy=0;entryPerimeter=0;" edge="1" parent="1" source="uDSmN9cMYbXbq0DJB1bG-25" target="uDSmN9cMYbXbq0DJB1bG-29">
          <mxGeometry relative="1" as="geometry" />
        </mxCell>
        <mxCell id="uDSmN9cMYbXbq0DJB1bG-25" value="" style="shape=orEllipse;perimeter=ellipsePerimeter;whiteSpace=wrap;html=1;backgroundOutline=1;" vertex="1" parent="1">
          <mxGeometry x="275" y="160" width="20" height="20" as="geometry" />
        </mxCell>
        <mxCell id="uDSmN9cMYbXbq0DJB1bG-26" style="edgeStyle=orthogonalEdgeStyle;rounded=0;orthogonalLoop=1;jettySize=auto;html=1;entryX=0.5;entryY=0;entryDx=0;entryDy=0;" edge="1" parent="1" target="uDSmN9cMYbXbq0DJB1bG-25">
          <mxGeometry relative="1" as="geometry">
            <mxPoint x="285" y="120" as="sourcePoint" />
          </mxGeometry>
        </mxCell>
        <mxCell id="uDSmN9cMYbXbq0DJB1bG-27" value="&lt;div&gt;$$r$$&lt;/div&gt;" style="text;html=1;align=center;verticalAlign=middle;resizable=0;points=[];autosize=1;strokeColor=none;fillColor=none;" vertex="1" parent="1">
          <mxGeometry x="275" y="120" width="50" height="20" as="geometry" />
        </mxCell>
        <mxCell id="uDSmN9cMYbXbq0DJB1bG-28" value="" style="endArrow=none;html=1;rounded=0;" edge="1" parent="1">
          <mxGeometry width="50" height="50" relative="1" as="geometry">
            <mxPoint x="275" y="140" as="sourcePoint" />
            <mxPoint x="295" y="130" as="targetPoint" />
          </mxGeometry>
        </mxCell>
        <mxCell id="uDSmN9cMYbXbq0DJB1bG-29" value="$$f$$" style="whiteSpace=wrap;html=1;" vertex="1" parent="1">
          <mxGeometry x="315" y="120" width="40" height="160" as="geometry" />
        </mxCell>
        <mxCell id="uDSmN9cMYbXbq0DJB1bG-32" value="&lt;div&gt;$$x_1$$&lt;/div&gt;" style="text;html=1;align=center;verticalAlign=middle;resizable=0;points=[];autosize=1;strokeColor=none;fillColor=none;" vertex="1" parent="1">
          <mxGeometry x="255" y="100" width="60" height="20" as="geometry" />
        </mxCell>
        <mxCell id="uDSmN9cMYbXbq0DJB1bG-35" style="edgeStyle=orthogonalEdgeStyle;rounded=0;orthogonalLoop=1;jettySize=auto;html=1;entryX=0.985;entryY=0.313;entryDx=0;entryDy=0;entryPerimeter=0;startArrow=classic;startFill=1;endArrow=none;endFill=0;" edge="1" parent="1" source="uDSmN9cMYbXbq0DJB1bG-33" target="uDSmN9cMYbXbq0DJB1bG-29">
          <mxGeometry relative="1" as="geometry" />
        </mxCell>
        <mxCell id="uDSmN9cMYbXbq0DJB1bG-37" style="edgeStyle=orthogonalEdgeStyle;rounded=0;orthogonalLoop=1;jettySize=auto;html=1;startArrow=none;startFill=0;endArrow=classic;endFill=1;" edge="1" parent="1" source="uDSmN9cMYbXbq0DJB1bG-33">
          <mxGeometry relative="1" as="geometry">
            <mxPoint x="425" y="170" as="targetPoint" />
          </mxGeometry>
        </mxCell>
        <mxCell id="uDSmN9cMYbXbq0DJB1bG-33" value="" style="rounded=0;whiteSpace=wrap;html=1;" vertex="1" parent="1">
          <mxGeometry x="385" y="120" width="20" height="100" as="geometry" />
        </mxCell>
        <mxCell id="uDSmN9cMYbXbq0DJB1bG-36" style="edgeStyle=orthogonalEdgeStyle;rounded=0;orthogonalLoop=1;jettySize=auto;html=1;entryX=1;entryY=0.781;entryDx=0;entryDy=0;entryPerimeter=0;startArrow=classic;startFill=1;endArrow=none;endFill=0;" edge="1" parent="1" source="uDSmN9cMYbXbq0DJB1bG-34" target="uDSmN9cMYbXbq0DJB1bG-29">
          <mxGeometry relative="1" as="geometry" />
        </mxCell>
        <mxCell id="uDSmN9cMYbXbq0DJB1bG-38" style="edgeStyle=orthogonalEdgeStyle;rounded=0;orthogonalLoop=1;jettySize=auto;html=1;exitX=1;exitY=0.5;exitDx=0;exitDy=0;startArrow=none;startFill=0;endArrow=classic;endFill=1;" edge="1" parent="1" source="uDSmN9cMYbXbq0DJB1bG-34">
          <mxGeometry relative="1" as="geometry">
            <mxPoint x="425" y="245.20000000000005" as="targetPoint" />
          </mxGeometry>
        </mxCell>
        <mxCell id="uDSmN9cMYbXbq0DJB1bG-34" value="" style="rounded=0;whiteSpace=wrap;html=1;" vertex="1" parent="1">
          <mxGeometry x="385" y="210" width="20" height="70" as="geometry" />
        </mxCell>
        <mxCell id="uDSmN9cMYbXbq0DJB1bG-39" value="&lt;font style=&quot;font-size: 25px;&quot;&gt;...&lt;/font&gt;" style="text;html=1;align=center;verticalAlign=middle;resizable=0;points=[];autosize=1;strokeColor=none;fillColor=none;" vertex="1" parent="1">
          <mxGeometry x="425" y="235" width="40" height="20" as="geometry" />
        </mxCell>
        <mxCell id="uDSmN9cMYbXbq0DJB1bG-42" value="&lt;font style=&quot;font-size: 25px;&quot;&gt;...&lt;/font&gt;" style="text;html=1;align=center;verticalAlign=middle;resizable=0;points=[];autosize=1;strokeColor=none;fillColor=none;" vertex="1" parent="1">
          <mxGeometry x="425" y="160" width="40" height="20" as="geometry" />
        </mxCell>
        <mxCell id="uDSmN9cMYbXbq0DJB1bG-44" style="edgeStyle=orthogonalEdgeStyle;rounded=0;orthogonalLoop=1;jettySize=auto;html=1;entryX=0;entryY=0.5;entryDx=0;entryDy=0;" edge="1" parent="1" target="uDSmN9cMYbXbq0DJB1bG-46">
          <mxGeometry relative="1" as="geometry">
            <mxPoint x="465" y="170" as="sourcePoint" />
          </mxGeometry>
        </mxCell>
        <mxCell id="uDSmN9cMYbXbq0DJB1bG-45" style="edgeStyle=orthogonalEdgeStyle;rounded=0;orthogonalLoop=1;jettySize=auto;html=1;exitX=1;exitY=0.5;exitDx=0;exitDy=0;entryX=0;entryY=0.313;entryDx=0;entryDy=0;entryPerimeter=0;" edge="1" parent="1" source="uDSmN9cMYbXbq0DJB1bG-46">
          <mxGeometry relative="1" as="geometry">
            <mxPoint x="515" y="170.08000000000004" as="targetPoint" />
          </mxGeometry>
        </mxCell>
        <mxCell id="uDSmN9cMYbXbq0DJB1bG-46" value="" style="shape=orEllipse;perimeter=ellipsePerimeter;whiteSpace=wrap;html=1;backgroundOutline=1;" vertex="1" parent="1">
          <mxGeometry x="475" y="160" width="20" height="20" as="geometry" />
        </mxCell>
        <mxCell id="uDSmN9cMYbXbq0DJB1bG-47" style="edgeStyle=orthogonalEdgeStyle;rounded=0;orthogonalLoop=1;jettySize=auto;html=1;entryX=0.5;entryY=0;entryDx=0;entryDy=0;" edge="1" parent="1" target="uDSmN9cMYbXbq0DJB1bG-46">
          <mxGeometry relative="1" as="geometry">
            <mxPoint x="485" y="120" as="sourcePoint" />
          </mxGeometry>
        </mxCell>
        <mxCell id="uDSmN9cMYbXbq0DJB1bG-48" value="&lt;div&gt;$$r$$&lt;/div&gt;" style="text;html=1;align=center;verticalAlign=middle;resizable=0;points=[];autosize=1;strokeColor=none;fillColor=none;" vertex="1" parent="1">
          <mxGeometry x="475" y="120" width="50" height="20" as="geometry" />
        </mxCell>
        <mxCell id="uDSmN9cMYbXbq0DJB1bG-49" value="" style="endArrow=none;html=1;rounded=0;" edge="1" parent="1">
          <mxGeometry width="50" height="50" relative="1" as="geometry">
            <mxPoint x="475" y="140" as="sourcePoint" />
            <mxPoint x="495" y="130" as="targetPoint" />
          </mxGeometry>
        </mxCell>
        <mxCell id="uDSmN9cMYbXbq0DJB1bG-50" value="&lt;div&gt;$$x_{t-1}$$&lt;/div&gt;" style="text;html=1;align=center;verticalAlign=middle;resizable=0;points=[];autosize=1;strokeColor=none;fillColor=none;" vertex="1" parent="1">
          <mxGeometry x="455" y="100" width="80" height="20" as="geometry" />
        </mxCell>
        <mxCell id="uDSmN9cMYbXbq0DJB1bG-56" style="edgeStyle=orthogonalEdgeStyle;rounded=0;orthogonalLoop=1;jettySize=auto;html=1;exitX=0.015;exitY=0.788;exitDx=0;exitDy=0;fontSize=25;startArrow=classic;startFill=1;endArrow=none;endFill=0;exitPerimeter=0;" edge="1" parent="1" source="uDSmN9cMYbXbq0DJB1bG-51">
          <mxGeometry relative="1" as="geometry">
            <mxPoint x="465" y="246" as="targetPoint" />
          </mxGeometry>
        </mxCell>
        <mxCell id="uDSmN9cMYbXbq0DJB1bG-51" value="$$f$$" style="whiteSpace=wrap;html=1;" vertex="1" parent="1">
          <mxGeometry x="515" y="120" width="40" height="160" as="geometry" />
        </mxCell>
        <mxCell id="uDSmN9cMYbXbq0DJB1bG-52" style="edgeStyle=orthogonalEdgeStyle;rounded=0;orthogonalLoop=1;jettySize=auto;html=1;entryX=0.985;entryY=0.313;entryDx=0;entryDy=0;entryPerimeter=0;startArrow=classic;startFill=1;endArrow=none;endFill=0;" edge="1" parent="1" source="uDSmN9cMYbXbq0DJB1bG-53" target="uDSmN9cMYbXbq0DJB1bG-51">
          <mxGeometry relative="1" as="geometry" />
        </mxCell>
        <mxCell id="uDSmN9cMYbXbq0DJB1bG-53" value="" style="rounded=0;whiteSpace=wrap;html=1;" vertex="1" parent="1">
          <mxGeometry x="585" y="120" width="20" height="100" as="geometry" />
        </mxCell>
        <mxCell id="uDSmN9cMYbXbq0DJB1bG-54" style="edgeStyle=orthogonalEdgeStyle;rounded=0;orthogonalLoop=1;jettySize=auto;html=1;entryX=1;entryY=0.781;entryDx=0;entryDy=0;entryPerimeter=0;startArrow=classic;startFill=1;endArrow=none;endFill=0;" edge="1" parent="1" source="uDSmN9cMYbXbq0DJB1bG-55" target="uDSmN9cMYbXbq0DJB1bG-51">
          <mxGeometry relative="1" as="geometry" />
        </mxCell>
        <mxCell id="uDSmN9cMYbXbq0DJB1bG-55" value="" style="rounded=0;whiteSpace=wrap;html=1;" vertex="1" parent="1">
          <mxGeometry x="585" y="210" width="20" height="70" as="geometry" />
        </mxCell>
        <mxCell id="uDSmN9cMYbXbq0DJB1bG-57" style="edgeStyle=orthogonalEdgeStyle;rounded=0;orthogonalLoop=1;jettySize=auto;html=1;exitX=1;exitY=0.5;exitDx=0;exitDy=0;entryX=-0.014;entryY=0.316;entryDx=0;entryDy=0;entryPerimeter=0;" edge="1" parent="1" target="uDSmN9cMYbXbq0DJB1bG-64">
          <mxGeometry relative="1" as="geometry">
            <mxPoint x="605" y="170" as="sourcePoint" />
            <mxPoint x="645" y="170" as="targetPoint" />
          </mxGeometry>
        </mxCell>
        <mxCell id="uDSmN9cMYbXbq0DJB1bG-58" style="edgeStyle=orthogonalEdgeStyle;rounded=0;orthogonalLoop=1;jettySize=auto;html=1;" edge="1" parent="1">
          <mxGeometry relative="1" as="geometry">
            <mxPoint x="605" y="245.02857142857135" as="sourcePoint" />
            <mxPoint x="650" y="245" as="targetPoint" />
            <Array as="points">
              <mxPoint x="650" y="245" />
            </Array>
          </mxGeometry>
        </mxCell>
        <mxCell id="uDSmN9cMYbXbq0DJB1bG-61" style="edgeStyle=orthogonalEdgeStyle;rounded=0;orthogonalLoop=1;jettySize=auto;html=1;entryX=0.5;entryY=0;entryDx=0;entryDy=0;startArrow=classic;startFill=1;endArrow=none;endFill=0;" edge="1" parent="1">
          <mxGeometry relative="1" as="geometry">
            <mxPoint x="630" y="120" as="sourcePoint" />
            <mxPoint x="630" y="170" as="targetPoint" />
          </mxGeometry>
        </mxCell>
        <mxCell id="uDSmN9cMYbXbq0DJB1bG-62" value="&lt;div&gt;$$r$$&lt;/div&gt;" style="text;html=1;align=center;verticalAlign=middle;resizable=0;points=[];autosize=1;strokeColor=none;fillColor=none;" vertex="1" parent="1">
          <mxGeometry x="620" y="130" width="50" height="20" as="geometry" />
        </mxCell>
        <mxCell id="uDSmN9cMYbXbq0DJB1bG-63" value="" style="endArrow=none;html=1;rounded=0;" edge="1" parent="1">
          <mxGeometry width="50" height="50" relative="1" as="geometry">
            <mxPoint x="620" y="150" as="sourcePoint" />
            <mxPoint x="640" y="140" as="targetPoint" />
          </mxGeometry>
        </mxCell>
        <mxCell id="uDSmN9cMYbXbq0DJB1bG-64" value="$$f$$" style="whiteSpace=wrap;html=1;" vertex="1" parent="1">
          <mxGeometry x="651" y="120" width="40" height="160" as="geometry" />
        </mxCell>
        <mxCell id="uDSmN9cMYbXbq0DJB1bG-65" style="edgeStyle=orthogonalEdgeStyle;rounded=0;orthogonalLoop=1;jettySize=auto;html=1;entryX=0.985;entryY=0.313;entryDx=0;entryDy=0;entryPerimeter=0;startArrow=classic;startFill=1;endArrow=none;endFill=0;" edge="1" parent="1" source="uDSmN9cMYbXbq0DJB1bG-66" target="uDSmN9cMYbXbq0DJB1bG-64">
          <mxGeometry relative="1" as="geometry" />
        </mxCell>
        <mxCell id="uDSmN9cMYbXbq0DJB1bG-66" value="" style="rounded=0;whiteSpace=wrap;html=1;" vertex="1" parent="1">
          <mxGeometry x="721" y="120" width="20" height="100" as="geometry" />
        </mxCell>
        <mxCell id="uDSmN9cMYbXbq0DJB1bG-67" style="edgeStyle=orthogonalEdgeStyle;rounded=0;orthogonalLoop=1;jettySize=auto;html=1;entryX=1;entryY=0.781;entryDx=0;entryDy=0;entryPerimeter=0;startArrow=classic;startFill=1;endArrow=none;endFill=0;" edge="1" parent="1" source="uDSmN9cMYbXbq0DJB1bG-68" target="uDSmN9cMYbXbq0DJB1bG-64">
          <mxGeometry relative="1" as="geometry" />
        </mxCell>
        <mxCell id="uDSmN9cMYbXbq0DJB1bG-68" value="" style="rounded=0;whiteSpace=wrap;html=1;" vertex="1" parent="1">
          <mxGeometry x="721" y="210" width="20" height="70" as="geometry" />
        </mxCell>
        <mxCell id="uDSmN9cMYbXbq0DJB1bG-70" value="&lt;div&gt;$$y_0$$&lt;/div&gt;" style="text;html=1;align=center;verticalAlign=middle;resizable=0;points=[];autosize=1;strokeColor=none;fillColor=none;fontSize=12;" vertex="1" parent="1">
          <mxGeometry x="600" y="100" width="60" height="20" as="geometry" />
        </mxCell>
      </root>
    </mxGraphModel>
  </diagram>
</mxfile>
